<svg width="690" height="63" viewBox="0 0 690 63" fill="none" xmlns="http://www.w3.org/2000/svg">
<path d="M0.064 1.28H29.056V6.912H5.632V21.824H26.112V27.456H5.632V42.432H29.056V48H0.064V1.28ZM34.7485 1.152H40.1885V39.68C40.1885 40.6613 40.6365 41.4933 41.5325 42.176C42.4712 42.8587 43.5805 43.2 44.8605 43.2V48.64C43.4525 48.64 42.1298 48.4053 40.8925 47.936C39.6978 47.4667 38.6312 46.8267 37.6925 46.016C36.7965 45.2053 36.0712 44.2667 35.5165 43.2C35.0045 42.0907 34.7485 40.9173 34.7485 39.68V1.152ZM73.834 29.376C73.4927 28.1813 72.9807 27.072 72.298 26.048C71.658 24.9813 70.8687 24.0853 69.93 23.36C68.9913 22.592 67.9247 21.9947 66.73 21.568C65.578 21.1413 64.3407 20.928 63.018 20.928C61.6953 20.928 60.4367 21.1413 59.242 21.568C58.09 21.9947 57.0447 22.592 56.106 23.36C55.1673 24.0853 54.3567 24.9813 53.674 26.048C52.9913 27.072 52.5007 28.1813 52.202 29.376H73.834ZM63.018 48.768C60.714 48.768 58.538 48.3413 56.49 47.488C54.4847 46.592 52.714 45.3973 51.178 43.904C49.6847 42.368 48.49 40.5973 47.594 38.592C46.7407 36.5867 46.314 34.432 46.314 32.128C46.314 29.824 46.7407 27.648 47.594 25.6C48.49 23.552 49.6847 21.7813 51.178 20.288C52.714 18.7947 54.4847 17.6213 56.49 16.768C58.538 15.872 60.714 15.424 63.018 15.424C65.322 15.424 67.4767 15.872 69.482 16.768C71.53 17.6213 73.3007 18.7947 74.794 20.288C76.2873 21.7813 77.4607 23.552 78.314 25.6C79.21 27.648 79.658 29.824 79.658 32.128C79.658 32.4267 79.658 32.7467 79.658 33.088C79.658 33.4293 79.6153 34.0053 79.53 34.816H52.202C52.5007 36.0533 52.9913 37.184 53.674 38.208C54.3567 39.232 55.1673 40.128 56.106 40.896C57.0447 41.664 58.09 42.2613 59.242 42.688C60.4367 43.1147 61.6953 43.328 63.018 43.328C64.042 43.328 65.066 43.072 66.09 42.56C67.114 42.0053 68.0953 41.28 69.034 40.384L72.874 44.224C71.466 45.5893 69.9087 46.6987 68.202 47.552C66.538 48.3627 64.81 48.768 63.018 48.768ZM102.581 15.424C104.885 15.424 107.039 15.872 109.045 16.768C111.093 17.6213 112.863 18.7947 114.357 20.288C115.893 21.7813 117.087 23.552 117.941 25.6C118.837 27.648 119.285 29.824 119.285 32.128C119.285 34.432 118.837 36.5867 117.941 38.592C117.087 40.5973 115.893 42.368 114.357 43.904C112.863 45.3973 111.093 46.592 109.045 47.488C107.039 48.3413 104.885 48.768 102.581 48.768C100.405 48.768 98.3565 48.4053 96.4365 47.68C94.5592 46.912 92.8738 45.8453 91.3805 44.48V62.912H85.8765V32.128C85.8765 29.824 86.3032 27.648 87.1565 25.6C88.0525 23.552 89.2472 21.7813 90.7405 20.288C92.2765 18.7947 94.0472 17.6213 96.0525 16.768C98.1005 15.872 100.277 15.424 102.581 15.424ZM102.581 20.928C101.045 20.928 99.5938 21.2267 98.2285 21.824C96.8632 22.3787 95.6685 23.168 94.6445 24.192C93.6205 25.216 92.8098 26.4107 92.2125 27.776C91.6578 29.1413 91.3805 30.592 91.3805 32.128C91.3805 33.664 91.6578 35.1147 92.2125 36.48C92.8098 37.8453 93.6205 39.04 94.6445 40.064C95.6685 41.0453 96.8632 41.8347 98.2285 42.432C99.5938 43.0293 101.045 43.328 102.581 43.328C104.117 43.328 105.567 43.0293 106.933 42.432C108.298 41.8347 109.493 41.0453 110.517 40.064C111.541 39.04 112.33 37.8453 112.885 36.48C113.482 35.1147 113.781 33.664 113.781 32.128C113.781 30.592 113.482 29.1413 112.885 27.776C112.33 26.4107 111.541 25.216 110.517 24.192C109.493 23.168 108.298 22.3787 106.933 21.824C105.567 21.2267 104.117 20.928 102.581 20.928ZM137.864 15.296C139.613 15.296 141.256 15.6373 142.792 16.32C144.371 17.0027 145.736 17.92 146.888 19.072C148.04 20.224 148.957 21.5893 149.64 23.168C150.323 24.704 150.664 26.3467 150.664 28.096V48H145.16V28.096C145.16 27.072 144.968 26.1333 144.584 25.28C144.2 24.384 143.667 23.616 142.984 22.976C142.344 22.2933 141.576 21.76 140.68 21.376C139.827 20.992 138.888 20.8 137.864 20.8C136.84 20.8 135.88 20.992 134.984 21.376C134.088 21.76 133.299 22.2933 132.616 22.976C131.976 23.616 131.464 24.384 131.08 25.28C130.696 26.1333 130.504 27.072 130.504 28.096V48H125V1.152H130.504V17.536C131.485 16.8107 132.616 16.256 133.896 15.872C135.176 15.488 136.499 15.296 137.864 15.296ZM172.947 15.232C175.251 15.232 177.427 15.68 179.475 16.576C181.523 17.4293 183.293 18.624 184.787 20.16C186.323 21.6533 187.517 23.424 188.371 25.472C189.267 27.4773 189.715 29.632 189.715 31.936V47.936H184.147V44.352C182.653 45.6747 180.947 46.72 179.027 47.488C177.149 48.2133 175.123 48.576 172.947 48.576C170.643 48.576 168.488 48.1493 166.483 47.296C164.477 46.4 162.707 45.2053 161.171 43.712C159.677 42.2187 158.483 40.4693 157.587 38.464C156.733 36.416 156.306 34.24 156.306 31.936C156.306 29.632 156.733 27.4773 157.587 25.472C158.483 23.424 159.677 21.6533 161.171 20.16C162.707 18.624 164.477 17.4293 166.483 16.576C168.488 15.68 170.643 15.232 172.947 15.232ZM172.947 20.736C171.411 20.736 169.96 21.0347 168.595 21.632C167.229 22.1867 166.035 22.976 165.01 24C164.029 25.024 163.24 26.2187 162.643 27.584C162.045 28.9493 161.747 30.4 161.747 31.936C161.747 33.472 162.045 34.9227 162.643 36.288C163.24 37.6533 164.029 38.848 165.01 39.872C166.035 40.8533 167.229 41.6427 168.595 42.24C169.96 42.8373 171.411 43.136 172.947 43.136C174.525 43.136 175.997 42.8373 177.363 42.24C178.728 41.6427 179.901 40.8533 180.883 39.872C181.907 38.848 182.696 37.6533 183.251 36.288C183.848 34.9227 184.147 33.472 184.147 31.936C184.147 30.4 183.848 28.9493 183.251 27.584C182.696 26.2187 181.907 25.024 180.883 24C179.901 22.976 178.728 22.1867 177.363 21.632C175.997 21.0347 174.525 20.736 172.947 20.736ZM212.707 15.296C215.011 15.296 217.166 15.744 219.171 16.64C221.219 17.4933 222.99 18.6667 224.483 20.16C226.019 21.6533 227.214 23.424 228.067 25.472C228.963 27.52 229.411 29.696 229.411 32V48H223.907V32C223.907 30.464 223.608 29.0133 223.011 27.648C222.456 26.2827 221.667 25.088 220.643 24.064C219.662 23.04 218.488 22.2507 217.123 21.696C215.758 21.0987 214.286 20.8 212.707 20.8C211.171 20.8 209.72 21.0987 208.355 21.696C206.99 22.2507 205.795 23.04 204.771 24.064C203.79 25.088 203 26.2827 202.403 27.648C201.806 29.0133 201.507 30.464 201.507 32V48H196.067V32C196.067 29.696 196.494 27.52 197.347 25.472C198.243 23.424 199.438 21.6533 200.931 20.16C202.467 18.6667 204.238 17.4933 206.243 16.64C208.248 15.744 210.403 15.296 212.707 15.296ZM235.444 8.32H240.948V16.128H252.148V21.568H240.948V39.552C240.948 40.4907 241.268 41.3013 241.908 41.984C242.59 42.624 243.422 42.944 244.404 42.944C245.385 42.944 246.196 42.496 246.836 41.6C247.518 40.704 247.86 39.616 247.86 38.336H253.3C253.3 39.744 253.065 41.0667 252.596 42.304C252.126 43.4987 251.486 44.5653 250.676 45.504C249.908 46.4 248.969 47.1253 247.86 47.68C246.793 48.192 245.641 48.448 244.404 48.448C243.166 48.448 241.993 48.2133 240.884 47.744C239.817 47.2747 238.878 46.6347 238.068 45.824C237.257 45.0133 236.617 44.0747 236.148 43.008C235.678 41.9413 235.444 40.7893 235.444 39.552V8.32ZM300.3 17.792C300.3 16.2133 300.001 14.7413 299.404 13.376C298.807 11.968 297.975 10.752 296.908 9.728C295.884 8.66133 294.668 7.82933 293.26 7.232C291.895 6.63467 290.423 6.336 288.844 6.336C287.265 6.336 285.772 6.63467 284.364 7.232C282.999 7.82933 281.783 8.66133 280.716 9.728C279.692 10.752 278.881 11.968 278.284 13.376C277.687 14.7413 277.388 16.2133 277.388 17.792V48H271.82V17.792C271.82 15.4453 272.268 13.248 273.164 11.2C274.06 9.10933 275.276 7.296 276.812 5.76C278.348 4.224 280.14 3.008 282.188 2.112C284.279 1.216 286.497 0.767998 288.844 0.767998C291.191 0.767998 293.388 1.216 295.436 2.112C297.527 3.008 299.34 4.224 300.876 5.76C302.412 7.296 303.628 9.10933 304.524 11.2C305.42 13.248 305.868 15.4453 305.868 17.792V48H300.3V17.792ZM339.709 29.376C339.368 28.1813 338.856 27.072 338.173 26.048C337.533 24.9813 336.744 24.0853 335.805 23.36C334.866 22.592 333.8 21.9947 332.605 21.568C331.453 21.1413 330.216 20.928 328.893 20.928C327.57 20.928 326.312 21.1413 325.117 21.568C323.965 21.9947 322.92 22.592 321.981 23.36C321.042 24.0853 320.232 24.9813 319.549 26.048C318.866 27.072 318.376 28.1813 318.077 29.376H339.709ZM328.893 48.768C326.589 48.768 324.413 48.3413 322.365 47.488C320.36 46.592 318.589 45.3973 317.053 43.904C315.56 42.368 314.365 40.5973 313.469 38.592C312.616 36.5867 312.189 34.432 312.189 32.128C312.189 29.824 312.616 27.648 313.469 25.6C314.365 23.552 315.56 21.7813 317.053 20.288C318.589 18.7947 320.36 17.6213 322.365 16.768C324.413 15.872 326.589 15.424 328.893 15.424C331.197 15.424 333.352 15.872 335.357 16.768C337.405 17.6213 339.176 18.7947 340.669 20.288C342.162 21.7813 343.336 23.552 344.189 25.6C345.085 27.648 345.533 29.824 345.533 32.128C345.533 32.4267 345.533 32.7467 345.533 33.088C345.533 33.4293 345.49 34.0053 345.405 34.816H318.077C318.376 36.0533 318.866 37.184 319.549 38.208C320.232 39.232 321.042 40.128 321.981 40.896C322.92 41.664 323.965 42.2613 325.117 42.688C326.312 43.1147 327.57 43.328 328.893 43.328C329.917 43.328 330.941 43.072 331.965 42.56C332.989 42.0053 333.97 41.28 334.909 40.384L338.749 44.224C337.341 45.5893 335.784 46.6987 334.077 47.552C332.413 48.3627 330.685 48.768 328.893 48.768ZM364.552 48.64C362.802 48.64 361.138 48.2987 359.56 47.616C358.024 46.9333 356.68 46.016 355.528 44.864C354.376 43.712 353.458 42.368 352.776 40.832C352.093 39.2533 351.752 37.5893 351.752 35.84V16H357.256V35.84C357.256 36.864 357.448 37.824 357.832 38.72C358.216 39.616 358.728 40.4053 359.368 41.088C360.05 41.728 360.818 42.24 361.672 42.624C362.568 43.008 363.528 43.2 364.552 43.2C365.576 43.2 366.536 43.008 367.432 42.624C368.328 42.24 369.096 41.728 369.736 41.088C370.418 40.4053 370.952 39.616 371.336 38.72C371.72 37.824 371.912 36.864 371.912 35.84V16H377.352V35.84C377.352 36.864 377.544 37.824 377.928 38.72C378.312 39.616 378.845 40.4053 379.528 41.088C380.21 41.728 380.978 42.24 381.832 42.624C382.728 43.008 383.688 43.2 384.712 43.2C385.736 43.2 386.696 43.008 387.592 42.624C388.488 42.24 389.256 41.728 389.896 41.088C390.578 40.4053 391.112 39.616 391.496 38.72C391.88 37.824 392.072 36.864 392.072 35.84V16H397.512V35.84C397.512 37.5893 397.17 39.2533 396.488 40.832C395.805 42.368 394.888 43.712 393.736 44.864C392.584 46.016 391.218 46.9333 389.64 47.616C388.104 48.2987 386.461 48.64 384.712 48.64C382.664 48.64 380.765 48.2133 379.016 47.36C377.309 46.464 375.837 45.2693 374.6 43.776C373.448 45.2693 371.997 46.464 370.248 47.36C368.498 48.2133 366.6 48.64 364.552 48.64ZM412.524 34.368C411.329 34.368 410.199 34.1547 409.132 33.728C408.108 33.3013 407.191 32.7253 406.38 32C405.569 31.232 404.908 30.336 404.396 29.312C403.927 28.288 403.671 27.1787 403.628 25.984C403.585 25.728 403.564 25.408 403.564 25.024C403.564 24.5973 403.585 24.256 403.628 24C403.671 22.848 403.927 21.76 404.396 20.736C404.908 19.712 405.569 18.816 406.38 18.048C407.191 17.28 408.108 16.6827 409.132 16.256C410.199 15.8293 411.329 15.616 412.524 15.616H424.812V21.12H412.524C411.628 21.12 410.839 21.44 410.156 22.08C409.516 22.6773 409.153 23.4453 409.068 24.384C408.983 24.8107 408.983 25.2587 409.068 25.728C409.153 26.624 409.516 27.392 410.156 28.032C410.839 28.6293 411.628 28.928 412.524 28.928H416.94C418.135 28.928 419.265 29.1627 420.332 29.632C421.399 30.0587 422.316 30.656 423.084 31.424C423.895 32.192 424.535 33.088 425.004 34.112C425.516 35.136 425.793 36.2453 425.836 37.44V39.232C425.836 40.4693 425.58 41.6213 425.068 42.688C424.599 43.712 423.959 44.6293 423.148 45.44C422.38 46.2507 421.441 46.8907 420.332 47.36C419.265 47.7867 418.113 48 416.876 48H404.268V42.56H416.876C417.729 42.56 418.455 42.2827 419.052 41.728C419.692 41.1733 420.119 40.512 420.332 39.744V39.488C420.332 39.4027 420.332 39.3387 420.332 39.296C420.375 39.2107 420.396 39.1253 420.396 39.04V37.824C420.353 36.8427 419.991 36.032 419.308 35.392C418.668 34.7093 417.857 34.368 416.876 34.368H412.524ZM474.363 17.792C474.363 16.2133 474.064 14.7413 473.467 13.376C472.869 11.968 472.037 10.752 470.971 9.728C469.947 8.66133 468.731 7.82933 467.323 7.232C465.957 6.63467 464.485 6.336 462.907 6.336C461.328 6.336 459.835 6.63467 458.427 7.232C457.061 7.82933 455.845 8.66133 454.779 9.728C453.755 10.752 452.944 11.968 452.347 13.376C451.749 14.7413 451.451 16.2133 451.451 17.792V48H445.883V17.792C445.883 15.4453 446.331 13.248 447.227 11.2C448.123 9.10933 449.339 7.296 450.875 5.76C452.411 4.224 454.203 3.008 456.251 2.112C458.341 1.216 460.56 0.767998 462.907 0.767998C465.253 0.767998 467.451 1.216 469.499 2.112C471.589 3.008 473.403 4.224 474.939 5.76C476.475 7.296 477.691 9.10933 478.587 11.2C479.483 13.248 479.931 15.4453 479.931 17.792V48H474.363V17.792ZM513.772 29.376C513.43 28.1813 512.918 27.072 512.236 26.048C511.596 24.9813 510.806 24.0853 509.868 23.36C508.929 22.592 507.862 21.9947 506.668 21.568C505.516 21.1413 504.278 20.928 502.956 20.928C501.633 20.928 500.374 21.1413 499.18 21.568C498.028 21.9947 496.982 22.592 496.044 23.36C495.105 24.0853 494.294 24.9813 493.612 26.048C492.929 27.072 492.438 28.1813 492.14 29.376H513.772ZM502.956 48.768C500.652 48.768 498.476 48.3413 496.428 47.488C494.422 46.592 492.652 45.3973 491.116 43.904C489.622 42.368 488.428 40.5973 487.532 38.592C486.678 36.5867 486.252 34.432 486.252 32.128C486.252 29.824 486.678 27.648 487.532 25.6C488.428 23.552 489.622 21.7813 491.116 20.288C492.652 18.7947 494.422 17.6213 496.428 16.768C498.476 15.872 500.652 15.424 502.956 15.424C505.26 15.424 507.414 15.872 509.42 16.768C511.468 17.6213 513.238 18.7947 514.732 20.288C516.225 21.7813 517.398 23.552 518.252 25.6C519.148 27.648 519.596 29.824 519.596 32.128C519.596 32.4267 519.596 32.7467 519.596 33.088C519.596 33.4293 519.553 34.0053 519.468 34.816H492.14C492.438 36.0533 492.929 37.184 493.612 38.208C494.294 39.232 495.105 40.128 496.044 40.896C496.982 41.664 498.028 42.2613 499.18 42.688C500.374 43.1147 501.633 43.328 502.956 43.328C503.98 43.328 505.004 43.072 506.028 42.56C507.052 42.0053 508.033 41.28 508.972 40.384L512.812 44.224C511.404 45.5893 509.846 46.6987 508.14 47.552C506.476 48.3627 504.748 48.768 502.956 48.768ZM526.006 8.32H531.51V16.128H542.71V21.568H531.51V39.552C531.51 40.4907 531.83 41.3013 532.47 41.984C533.153 42.624 533.985 42.944 534.966 42.944C535.947 42.944 536.758 42.496 537.398 41.6C538.081 40.704 538.422 39.616 538.422 38.336H543.862C543.862 39.744 543.627 41.0667 543.158 42.304C542.689 43.4987 542.049 44.5653 541.238 45.504C540.47 46.4 539.531 47.1253 538.422 47.68C537.355 48.192 536.203 48.448 534.966 48.448C533.729 48.448 532.555 48.2133 531.446 47.744C530.379 47.2747 529.441 46.6347 528.63 45.824C527.819 45.0133 527.179 44.0747 526.71 43.008C526.241 41.9413 526.006 40.7893 526.006 39.552V8.32ZM561.239 48.64C559.49 48.64 557.826 48.2987 556.247 47.616C554.711 46.9333 553.367 46.016 552.215 44.864C551.063 43.712 550.146 42.368 549.463 40.832C548.78 39.2533 548.439 37.5893 548.439 35.84V16H553.943V35.84C553.943 36.864 554.135 37.824 554.519 38.72C554.903 39.616 555.415 40.4053 556.055 41.088C556.738 41.728 557.506 42.24 558.359 42.624C559.255 43.008 560.215 43.2 561.239 43.2C562.263 43.2 563.223 43.008 564.119 42.624C565.015 42.24 565.783 41.728 566.423 41.088C567.106 40.4053 567.639 39.616 568.023 38.72C568.407 37.824 568.599 36.864 568.599 35.84V16H574.039V35.84C574.039 36.864 574.231 37.824 574.615 38.72C574.999 39.616 575.532 40.4053 576.215 41.088C576.898 41.728 577.666 42.24 578.519 42.624C579.415 43.008 580.375 43.2 581.399 43.2C582.423 43.2 583.383 43.008 584.279 42.624C585.175 42.24 585.943 41.728 586.583 41.088C587.266 40.4053 587.799 39.616 588.183 38.72C588.567 37.824 588.759 36.864 588.759 35.84V16H594.199V35.84C594.199 37.5893 593.858 39.2533 593.175 40.832C592.492 42.368 591.575 43.712 590.423 44.864C589.271 46.016 587.906 46.9333 586.327 47.616C584.791 48.2987 583.148 48.64 581.399 48.64C579.351 48.64 577.452 48.2133 575.703 47.36C573.996 46.464 572.524 45.2693 571.287 43.776C570.135 45.2693 568.684 46.464 566.935 47.36C565.186 48.2133 563.287 48.64 561.239 48.64ZM617.515 15.296C619.819 15.296 621.974 15.744 623.979 16.64C626.027 17.4933 627.798 18.6667 629.291 20.16C630.827 21.6533 632.022 23.424 632.875 25.472C633.771 27.52 634.219 29.696 634.219 32C634.219 34.304 633.771 36.48 632.875 38.528C632.022 40.5333 630.827 42.2827 629.291 43.776C627.798 45.2693 626.027 46.464 623.979 47.36C621.974 48.2133 619.819 48.64 617.515 48.64C615.211 48.64 613.056 48.2133 611.051 47.36C609.046 46.464 607.275 45.2693 605.739 43.776C604.246 42.2827 603.051 40.5333 602.155 38.528C601.302 36.48 600.875 34.304 600.875 32C600.875 29.696 601.302 27.52 602.155 25.472C603.051 23.424 604.246 21.6533 605.739 20.16C607.275 18.6667 609.046 17.4933 611.051 16.64C613.056 15.744 615.211 15.296 617.515 15.296ZM617.515 20.8C615.979 20.8 614.528 21.0987 613.163 21.696C611.798 22.2507 610.603 23.04 609.579 24.064C608.555 25.088 607.744 26.2827 607.147 27.648C606.592 29.0133 606.315 30.464 606.315 32C606.315 33.536 606.592 34.9867 607.147 36.352C607.744 37.7173 608.555 38.912 609.579 39.936C610.603 40.9173 611.798 41.7067 613.163 42.304C614.528 42.9013 615.979 43.2 617.515 43.2C619.051 43.2 620.502 42.9013 621.867 42.304C623.232 41.7067 624.427 40.9173 625.451 39.936C626.475 38.912 627.264 37.7173 627.819 36.352C628.416 34.9867 628.715 33.536 628.715 32C628.715 30.464 628.416 29.0133 627.819 27.648C627.264 26.2827 626.475 25.088 625.451 24.064C624.427 23.04 623.232 22.2507 621.867 21.696C620.502 21.0987 619.051 20.8 617.515 20.8ZM645.568 48H640.064V32C640.064 29.696 640.533 27.52 641.472 25.472C642.411 23.424 643.691 21.6533 645.312 20.16C646.933 18.6667 648.811 17.4933 650.944 16.64C653.12 15.744 655.445 15.296 657.92 15.296V20.8C656.213 20.8 654.613 21.0987 653.12 21.696C651.627 22.2507 650.304 23.04 649.152 24.064C648.043 25.088 647.168 26.2827 646.528 27.648C645.888 29.0133 645.568 30.464 645.568 32V48ZM663.123 1.152H668.564V29.184L681.748 16H689.428L673.428 32L689.428 48H681.748L668.564 34.816V48H663.123V1.152Z" fill="black"/>
</svg>
